<svg id="visual" viewBox="0 0 900 600" width="900" height="600" xmlns="http://www.w3.org/2000/svg" xmlns:xlink="http://www.w3.org/1999/xlink" version="1.1"><rect x="0" y="0" width="900" height="600" fill="#202222"></rect><path d="M0 379L21.5 401.5C43 424 86 469 128.8 483.7C171.7 498.3 214.3 482.7 257.2 467C300 451.3 343 435.7 385.8 436.8C428.7 438 471.3 456 514.2 470.5C557 485 600 496 642.8 485.5C685.7 475 728.3 443 771.2 441.7C814 440.3 857 469.7 878.5 484.3L900 499L900 601L878.5 601C857 601 814 601 771.2 601C728.3 601 685.7 601 642.8 601C600 601 557 601 514.2 601C471.3 601 428.7 601 385.8 601C343 601 300 601 257.2 601C214.3 601 171.7 601 128.8 601C86 601 43 601 21.5 601L0 601Z" fill="#FF0066" stroke-linecap="round" stroke-linejoin="miter"></path></svg>